%TF.GenerationSoftware,KiCad,Pcbnew,8.0.9*%
%TF.CreationDate,2025-07-24T11:39:00+02:00*%
%TF.ProjectId,Precision Analog Isolation Amplifier,50726563-6973-4696-9f6e-20416e616c6f,rev?*%
%TF.SameCoordinates,Original*%
%TF.FileFunction,Soldermask,Top*%
%TF.FilePolarity,Negative*%
%FSLAX46Y46*%
G04 Gerber Fmt 4.6, Leading zero omitted, Abs format (unit mm)*
G04 Created by KiCad (PCBNEW 8.0.9) date 2025-07-24 11:39:00*
%MOMM*%
%LPD*%
G01*
G04 APERTURE LIST*
G04 Aperture macros list*
%AMRoundRect*
0 Rectangle with rounded corners*
0 $1 Rounding radius*
0 $2 $3 $4 $5 $6 $7 $8 $9 X,Y pos of 4 corners*
0 Add a 4 corners polygon primitive as box body*
4,1,4,$2,$3,$4,$5,$6,$7,$8,$9,$2,$3,0*
0 Add four circle primitives for the rounded corners*
1,1,$1+$1,$2,$3*
1,1,$1+$1,$4,$5*
1,1,$1+$1,$6,$7*
1,1,$1+$1,$8,$9*
0 Add four rect primitives between the rounded corners*
20,1,$1+$1,$2,$3,$4,$5,0*
20,1,$1+$1,$4,$5,$6,$7,0*
20,1,$1+$1,$6,$7,$8,$9,0*
20,1,$1+$1,$8,$9,$2,$3,0*%
G04 Aperture macros list end*
%ADD10C,3.200000*%
%ADD11RoundRect,0.250000X-0.450000X0.350000X-0.450000X-0.350000X0.450000X-0.350000X0.450000X0.350000X0*%
%ADD12RoundRect,0.250000X1.000000X0.650000X-1.000000X0.650000X-1.000000X-0.650000X1.000000X-0.650000X0*%
%ADD13RoundRect,0.250000X-0.350000X-0.450000X0.350000X-0.450000X0.350000X0.450000X-0.350000X0.450000X0*%
%ADD14RoundRect,0.250000X0.337500X0.475000X-0.337500X0.475000X-0.337500X-0.475000X0.337500X-0.475000X0*%
%ADD15RoundRect,0.250000X0.325000X0.450000X-0.325000X0.450000X-0.325000X-0.450000X0.325000X-0.450000X0*%
%ADD16RoundRect,0.250000X-0.337500X-0.475000X0.337500X-0.475000X0.337500X0.475000X-0.337500X0.475000X0*%
%ADD17R,2.290000X1.300000*%
%ADD18RoundRect,0.250000X0.350000X0.450000X-0.350000X0.450000X-0.350000X-0.450000X0.350000X-0.450000X0*%
%ADD19R,1.574800X1.574800*%
%ADD20R,1.955800X1.955800*%
%ADD21R,1.525000X0.650000*%
%ADD22R,1.700000X1.700000*%
%ADD23O,1.700000X1.700000*%
%ADD24RoundRect,0.250000X0.275000X0.700000X-0.275000X0.700000X-0.275000X-0.700000X0.275000X-0.700000X0*%
%ADD25R,0.650000X1.525000*%
%ADD26R,2.290000X2.290000*%
%ADD27RoundRect,0.250000X0.470000X0.470000X-0.470000X0.470000X-0.470000X-0.470000X0.470000X-0.470000X0*%
%ADD28C,1.440000*%
%ADD29RoundRect,0.250000X-1.000000X-0.650000X1.000000X-0.650000X1.000000X0.650000X-1.000000X0.650000X0*%
%ADD30RoundRect,0.250000X-0.475000X0.337500X-0.475000X-0.337500X0.475000X-0.337500X0.475000X0.337500X0*%
%ADD31RoundRect,0.200000X-0.750000X-0.200000X0.750000X-0.200000X0.750000X0.200000X-0.750000X0.200000X0*%
%ADD32RoundRect,0.250000X-0.325000X-0.450000X0.325000X-0.450000X0.325000X0.450000X-0.325000X0.450000X0*%
%ADD33RoundRect,0.250000X-0.275000X-0.700000X0.275000X-0.700000X0.275000X0.700000X-0.275000X0.700000X0*%
%ADD34RoundRect,0.250000X0.450000X-0.350000X0.450000X0.350000X-0.450000X0.350000X-0.450000X-0.350000X0*%
G04 APERTURE END LIST*
D10*
%TO.C,REF\u002A\u002A*%
X170600000Y-116600000D03*
%TD*%
%TO.C,REF\u002A\u002A*%
X114300000Y-116600000D03*
%TD*%
%TO.C,REF\u002A\u002A*%
X170800000Y-79700000D03*
%TD*%
%TO.C,REF\u002A\u002A*%
X114300000Y-79900000D03*
%TD*%
D11*
%TO.C,R3*%
X128200000Y-111750000D03*
X128200000Y-113750000D03*
%TD*%
D12*
%TO.C,D4*%
X164700000Y-94100000D03*
X160700000Y-94100000D03*
%TD*%
D13*
%TO.C,F3*%
X163500000Y-84300000D03*
X165500000Y-84300000D03*
%TD*%
D12*
%TO.C,D3*%
X124000000Y-89100000D03*
X120000000Y-89100000D03*
%TD*%
D14*
%TO.C,C4*%
X130375000Y-88200000D03*
X128300000Y-88200000D03*
%TD*%
D15*
%TO.C,D9*%
X161400000Y-82000000D03*
X159350000Y-82000000D03*
%TD*%
D16*
%TO.C,C10*%
X154325000Y-84000000D03*
X156400000Y-84000000D03*
%TD*%
D17*
%TO.C,U1*%
X136565000Y-93190000D03*
X136565000Y-95730000D03*
X136565000Y-98270000D03*
X136565000Y-100810000D03*
X147835000Y-100810000D03*
X147835000Y-98270000D03*
X147835000Y-95730000D03*
X147835000Y-93190000D03*
%TD*%
D18*
%TO.C,R9*%
X121325000Y-101100000D03*
X119325000Y-101100000D03*
%TD*%
D19*
%TO.C,J4*%
X170125100Y-107900000D03*
D20*
X167750200Y-105525100D03*
X172500000Y-105525100D03*
X167750200Y-110274900D03*
X172500000Y-110274900D03*
%TD*%
D16*
%TO.C,C14*%
X154325000Y-96900000D03*
X156400000Y-96900000D03*
%TD*%
%TO.C,C9*%
X154325000Y-82000000D03*
X156400000Y-82000000D03*
%TD*%
D21*
%TO.C,U2*%
X157300000Y-105830000D03*
X157300000Y-107100000D03*
X157300000Y-108370000D03*
X157300000Y-109640000D03*
X162724000Y-109640000D03*
X162724000Y-108370000D03*
X162724000Y-107100000D03*
X162724000Y-105830000D03*
%TD*%
D22*
%TO.C,J2*%
X171400000Y-88960000D03*
D23*
X171400000Y-91500000D03*
X171400000Y-94040000D03*
%TD*%
D16*
%TO.C,C12*%
X154325000Y-88000000D03*
X156400000Y-88000000D03*
%TD*%
D24*
%TO.C,FB4*%
X161400000Y-98900000D03*
X158250000Y-98900000D03*
%TD*%
D19*
%TO.C,J3*%
X115162500Y-108100000D03*
D20*
X117537400Y-110474900D03*
X112787600Y-110474900D03*
X117537400Y-105725100D03*
X112787600Y-105725100D03*
%TD*%
D22*
%TO.C,J1*%
X113500000Y-89075000D03*
D23*
X113500000Y-91615000D03*
X113500000Y-94155000D03*
%TD*%
D25*
%TO.C,U4*%
X137705000Y-108138000D03*
X136435000Y-108138000D03*
X135165000Y-108138000D03*
X133895000Y-108138000D03*
X133895000Y-113562000D03*
X135165000Y-113562000D03*
X136435000Y-113562000D03*
X137705000Y-113562000D03*
%TD*%
D16*
%TO.C,C15*%
X154325000Y-98900000D03*
X156400000Y-98900000D03*
%TD*%
D21*
%TO.C,IC1*%
X157288000Y-113095000D03*
X157288000Y-114365000D03*
X157288000Y-115635000D03*
X157288000Y-116905000D03*
X162712000Y-116905000D03*
X162712000Y-115635000D03*
X162712000Y-114365000D03*
X162712000Y-113095000D03*
D26*
X160000000Y-115000000D03*
%TD*%
D18*
%TO.C,R6*%
X148000000Y-105000000D03*
X146000000Y-105000000D03*
%TD*%
D16*
%TO.C,C13*%
X154325000Y-94900000D03*
X156400000Y-94900000D03*
%TD*%
D13*
%TO.C,R11*%
X163500000Y-82000000D03*
X165500000Y-82000000D03*
%TD*%
D14*
%TO.C,C1*%
X130375000Y-82200000D03*
X128300000Y-82200000D03*
%TD*%
D27*
%TO.C,RV1*%
X148000000Y-115000000D03*
D28*
X148000000Y-112460000D03*
X148000000Y-109920000D03*
%TD*%
D29*
%TO.C,D5*%
X160800000Y-89000000D03*
X164800000Y-89000000D03*
%TD*%
D15*
%TO.C,D7*%
X125425000Y-101100000D03*
X123375000Y-101100000D03*
%TD*%
D13*
%TO.C,R10*%
X163400000Y-101100000D03*
X165400000Y-101100000D03*
%TD*%
%TO.C,R5*%
X128300000Y-106200000D03*
X130300000Y-106200000D03*
%TD*%
%TO.C,F4*%
X163400000Y-98900000D03*
X165400000Y-98900000D03*
%TD*%
%TO.C,R4*%
X120300000Y-110000000D03*
X122300000Y-110000000D03*
%TD*%
D30*
%TO.C,C17*%
X126200000Y-111750000D03*
X126200000Y-113825000D03*
%TD*%
D14*
%TO.C,C20*%
X167000000Y-113000000D03*
X164925000Y-113000000D03*
%TD*%
D15*
%TO.C,D1*%
X126325000Y-108150000D03*
X124275000Y-108150000D03*
%TD*%
D14*
%TO.C,C2*%
X130375000Y-84200000D03*
X128300000Y-84200000D03*
%TD*%
D29*
%TO.C,D2*%
X120000000Y-94200000D03*
X124000000Y-94200000D03*
%TD*%
D24*
%TO.C,FB3*%
X161500000Y-84300000D03*
X158350000Y-84300000D03*
%TD*%
D31*
%TO.C,Q1*%
X128600000Y-108100000D03*
X128600000Y-110000000D03*
X131600000Y-109050000D03*
%TD*%
D32*
%TO.C,D8*%
X159250000Y-101100000D03*
X161300000Y-101100000D03*
%TD*%
D13*
%TO.C,R7*%
X151900000Y-115600000D03*
X153900000Y-115600000D03*
%TD*%
D14*
%TO.C,C7*%
X130437500Y-99100000D03*
X128362500Y-99100000D03*
%TD*%
D18*
%TO.C,F2*%
X121300000Y-84400000D03*
X119300000Y-84400000D03*
%TD*%
D14*
%TO.C,C6*%
X130437500Y-97100000D03*
X128362500Y-97100000D03*
%TD*%
%TO.C,C8*%
X130437500Y-101100000D03*
X128362500Y-101100000D03*
%TD*%
D16*
%TO.C,C11*%
X154325000Y-86000000D03*
X156400000Y-86000000D03*
%TD*%
D18*
%TO.C,F1*%
X121325000Y-98900000D03*
X119325000Y-98900000D03*
%TD*%
D33*
%TO.C,FB2*%
X123325000Y-98900000D03*
X126475000Y-98900000D03*
%TD*%
%TO.C,FB1*%
X123300000Y-84400000D03*
X126450000Y-84400000D03*
%TD*%
D34*
%TO.C,R2*%
X132000000Y-113750000D03*
X132000000Y-111750000D03*
%TD*%
D14*
%TO.C,C3*%
X130375000Y-86200000D03*
X128300000Y-86200000D03*
%TD*%
%TO.C,C18*%
X153912000Y-108435000D03*
X151837000Y-108435000D03*
%TD*%
D32*
%TO.C,D6*%
X123375000Y-82200000D03*
X125425000Y-82200000D03*
%TD*%
D16*
%TO.C,C16*%
X154325000Y-101075000D03*
X156400000Y-101075000D03*
%TD*%
%TO.C,C19*%
X151825000Y-113300000D03*
X153900000Y-113300000D03*
%TD*%
D18*
%TO.C,R8*%
X121300000Y-82200000D03*
X119300000Y-82200000D03*
%TD*%
D34*
%TO.C,R1*%
X130100000Y-113750000D03*
X130100000Y-111750000D03*
%TD*%
D14*
%TO.C,C5*%
X130437500Y-95100000D03*
X128362500Y-95100000D03*
%TD*%
M02*
