M48
; DRILL file {KiCad 8.0.9} date 2025-07-27T13:25:53+0200
; FORMAT={-:-/ absolute / metric / decimal}
; #@! TF.CreationDate,2025-07-27T13:25:53+02:00
; #@! TF.GenerationSoftware,Kicad,Pcbnew,8.0.9
; #@! TF.FileFunction,Plated,1,2,PTH
FMAT,2
METRIC
; #@! TA.AperFunction,Plated,PTH,ViaDrill
T1C0.300
; #@! TA.AperFunction,Plated,PTH,ViaDrill
T2C0.500
; #@! TA.AperFunction,Plated,PTH,ComponentDrill
T3C0.800
; #@! TA.AperFunction,Plated,PTH,ComponentDrill
T4C1.000
%
G90
G05
T1
X153.9Y-117.8
T2
X115.5Y-98.5
X116.5Y-84.5
X117.0Y-96.0
X117.5Y-87.0
X128.5Y-90.3
X131.1Y-116.3
X131.5Y-104.0
X132.5Y-96.5
X132.5Y-98.0
X133.1Y-102.099
X134.5Y-100.5
X136.4Y-104.1
X150.3Y-103.3
X152.3Y-97.1
X153.0Y-105.8
X155.6Y-113.4
X155.7Y-107.1
X157.15Y-90.15
X158.1Y-110.7
X159.5Y-103.5
X161.5Y-103.0
X165.2Y-116.9
X167.5Y-87.0
X167.6Y-95.4
X167.9Y-107.9
X168.5Y-84.0
X169.1Y-98.6
T3
X148.0Y-109.92
X148.0Y-112.46
X148.0Y-115.0
T4
X113.5Y-89.075
X113.5Y-91.615
X113.5Y-94.155
X171.4Y-88.96
X171.4Y-91.5
X171.4Y-94.04
M30
